# xmcd
#
# Track frame offsets: 
#        150
#        16371
#        33013
#        48095
#        62027
#        80308
#        96010
#        112000
#        129699
#        144825
#        159519
#        177546
#        194435
#        211369
#        227077
#
# Disc length: 3257 seconds
#
# Revision: 1
# Processed by: cddbd v1.5.2PL0 Copyright (c) Steve Scherf et al.
# Submitted via: ExactAudioCopyFreeDBPlugin 1.0
#
DISCID=c40cb70f
DTITLE=Acm Awards 2015 - Rising New ARTIST
DYEAR=2015
DGENRE=Pop
TTITLE0=Raelynn - God Made Girls
TTITLE1=A Thousand Horses - Smoke
TTITLE2=CAM - My Mistake
TTITLE3=Dallas Smith - Wastin' Gas
TTITLE4=Mickey Guyton - Better Than You Left Me
TTITLE5=Old Dominion - Break Up With Him
TTITLE6=Katie Armiger - Cardboard Boxes
TTITLE7=Logan Mize - Can't Get Away From A Good Time
TTITLE8=Native Run - Good On You
TTITLE9=Steven Lee Olsen - Raised By A Good Time
TTITLE10=Kelsea Ballerini - The First Time
TTITLE11=Josh Dorr - Save Your Breath
TTITLE12=Aaron Parker - Heaven On Wheels
TTITLE13=Kaitlyn Baker - Coal Train
TTITLE14=Mitch Rossell - Any Girl
EXTD=
EXTT0=
EXTT1=
EXTT2=
EXTT3=
EXTT4=
EXTT5=
EXTT6=
EXTT7=
EXTT8=
EXTT9=
EXTT10=
EXTT11=
EXTT12=
EXTT13=
EXTT14=
PLAYORDER=
